<?xml version="1.0" encoding="utf-8"?>
<!-- Generator: Adobe Illustrator 24.3.0, SVG Export Plug-In . SVG Version: 6.00 Build 0)  -->
<svg version="1.1" id="Layer_1" xmlns="http://www.w3.org/2000/svg" xmlns:xlink="http://www.w3.org/1999/xlink" x="0px" y="0px"
	 viewBox="0 0 195.2 138.7" style="enable-background:new 0 0 195.2 138.7;" xml:space="preserve">
<style type="text/css">
	.st0{fill:#FFFFFF;}
	.st1{stroke:#000000;stroke-width:0.4004;stroke-miterlimit:10;}
	.st2{stroke:#000000;stroke-width:0.5;stroke-miterlimit:10;}
	.st3{fill:none;stroke:#000000;stroke-width:4.792;stroke-miterlimit:10;}
	.st4{font-family:'Humanist777BT-RomanB';}
	.st5{font-size:24.5188px;}
	.st6{fill:none;}
</style>
<g>
	<g>
		<text transform="matrix(1 0 0 1 34.2536 119.0924)" class="st4 st5">OR</text>
		<text transform="matrix(1 0 0 1 120.6584 119.0025)" class="st4 st5">CA</text>
	</g>
	<g>
		<path d="M97.7,29.6c0,0-2.7-13.5,28.1-10.1s40.7,3.5,56.3-7.8c0,0,9.6,3.3-10.9,26.5c-8.4,9.6-18.6,18.2-29.9,24
			c-5.6,2.9-11.4,5.1-16.9,8.1c-5.6,3.1-10.7,7.1-14.5,12.2c-2.3,3.1-4.3,6.5-5.7,10.1c-1.4,3.5-1,8.1,0.1,11.6
			c0.7,2.1,1.6,4.7,2.8,7.7l-9.5,0.1h-0.1l-9.5-0.1c1.2-3.1,2.1-5.6,2.8-7.7c1.2-3.6,1.5-8.1,0.1-11.6c-1.4-3.6-3.3-7-5.7-10.1
			c-3.9-5.1-8.9-9.1-14.5-12.2c-5.5-3-11.4-5.2-16.9-8.1c-11.4-5.9-21.5-14.5-29.9-24C3.6,15,13.2,11.8,13.2,11.8
			c15.6,11.3,25.5,11.2,56.3,7.8s28.1,10.1,28.1,10.1H97.7z"/>
		<polygon points="111.2,119.1 111.2,103.3 97.5,95.4 83.9,103.3 83.9,119.1 97.5,126.9 		"/>
	</g>
</g>
</svg>
